<?xml version="1.0" encoding="UTF-8"?>
<svg version="1.1" xmlns="http://www.w3.org/2000/svg" width="369" height="136">
<path d="M0 0 C121.77 0 243.54 0 369 0 C369 44.88 369 89.76 369 136 C247.23 136 125.46 136 0 136 C0 91.12 0 46.24 0 0 Z " fill="#FDFDFD" transform="translate(0,0)"/>
<path d="M0 0 C1.65 0 3.3 0 5 0 C5 9.57 5 19.14 5 29 C3.02 29 1.04 29 -1 29 C-1.66 29.33 -2.32 29.66 -3 30 C-7.18144011 30.39447548 -9.30946048 30.45035186 -12.875 28.125 C-15.73785628 25.26214372 -16.1865146 23.63283238 -16.3125 19.6875 C-16.28413514 16.16458401 -16.06650675 15.10641081 -14.125 12 C-11.25963015 9.30318132 -10.51612444 9.01843302 -6.5 8.875 C-3 9 -3 9 -1 10 C-0.67 6.7 -0.34 3.4 0 0 Z " fill="#461756" transform="translate(309,28)"/>
<path d="M0 0 C0.99 0 1.98 0 3 0 C3.33 3.63 3.66 7.26 4 11 C4.99 10.34 5.98 9.68 7 9 C11.96495273 8.54028216 15.06167696 8.84934157 19 12 C21.56632517 15.42176689 21.36435051 18.84640421 21 23 C19.74544028 25.82275936 18.71615278 27.46288541 16.25 29.3125 C13.0661395 30.28534626 10.30679965 30.24049452 7 30 C6.01 29.34 5.02 28.68 4 28 C2.68 28.33 1.36 28.66 0 29 C0 19.43 0 9.86 0 0 Z " fill="#431353" transform="translate(91,28)"/>
<path d="M0 0 C2.43375 0.185625 4.8675 0.37125 7.375 0.5625 C7.375 6.8325 7.375 13.1025 7.375 19.5625 C5.395 19.5625 3.415 19.5625 1.375 19.5625 C0.715 19.8925 0.055 20.2225 -0.625 20.5625 C-6.48890959 21.23910495 -6.48890959 21.23910495 -9.3828125 19.515625 C-12.95127792 16.58500123 -14.47165539 14.89148658 -15 10.3125 C-14.50572704 5.36977042 -13.08671699 4.02421699 -9.625 0.5625 C-6.5292768 -0.9853616 -3.35995602 -0.26932026 0 0 Z " fill="#4A1C59" transform="translate(256.625,37.4375)"/>
<path d="M0 0 C0.886875 0.37125 1.77375 0.7425 2.6875 1.125 C3.450625 1.41375 4.21375 1.7025 5 2 C5.99 1.34 6.98 0.68 8 0 C11.62734675 -0.47313219 13.46983726 -0.29874864 16.67578125 1.5078125 C19.3866615 4.4146051 19.52830386 6.12963019 19.43945312 10.0390625 C19.37661133 11.13347656 19.37661133 11.13347656 19.3125 12.25 C19.28994141 12.99507812 19.26738281 13.74015625 19.24414062 14.5078125 C19.18543561 16.339409 19.09575757 18.16996653 19 20 C18.01 20 17.02 20 16 20 C15.67 14.72 15.34 9.44 15 4 C12.69 4 10.38 4 8 4 C5.15385976 6.84614024 5.54420924 9.80369142 5.375 13.625 C5.33632812 14.33140625 5.29765625 15.0378125 5.2578125 15.765625 C5.16352276 17.50998524 5.08067109 19.25495691 5 21 C3.68 21 2.36 21 1 21 C0.93941406 19.85660156 0.87882812 18.71320312 0.81640625 17.53515625 C0.73201572 16.04425695 0.64736698 14.55337225 0.5625 13.0625 C0.52318359 12.30775391 0.48386719 11.55300781 0.44335938 10.77539062 C0.55961976 7.08055813 0.55961976 7.08055813 -1 4 C-4.51745287 4.25248627 -4.51745287 4.25248627 -8 5 C-9.41634833 7.83269666 -9.3463005 10.47466438 -9.5625 13.625 C-9.64628906 14.81351563 -9.73007812 16.00203125 -9.81640625 17.2265625 C-9.87699219 18.14179687 -9.93757813 19.05703125 -10 20 C-10.99 20 -11.98 20 -13 20 C-13 13.73 -13 7.46 -13 1 C-11.68 1.33 -10.36 1.66 -9 2 C-5.49337515 -0.3377499 -4.12370255 -0.3298962 0 0 Z " fill="#491D58" transform="translate(67,37)"/>
<path d="M0 0 C4.45875079 0.37156257 5.75181093 1.03755501 8.75 4.3125 C9.12233017 7.27922677 9.2308246 9.63106241 9.0625 12.5625 C9.03994141 13.30757812 9.01738281 14.05265625 8.99414062 14.8203125 C8.93543561 16.651909 8.84575757 18.48246653 8.75 20.3125 C7.1 20.3125 5.45 20.3125 3.75 20.3125 C3.68941406 19.38566406 3.62882813 18.45882812 3.56640625 17.50390625 C3.48261719 16.30636719 3.39882812 15.10882813 3.3125 13.875 C3.23128906 12.68003906 3.15007812 11.48507813 3.06640625 10.25390625 C3.07343886 7.42679756 3.07343886 7.42679756 1.75 6.3125 C-0.75 6.14583333 -0.75 6.14583333 -3.25 6.3125 C-5.19090826 8.25340826 -4.64919435 11.78543902 -4.8125 14.375 C-4.89628906 15.66535156 -4.98007813 16.95570312 -5.06640625 18.28515625 C-5.12699219 19.28417969 -5.18757812 20.28320312 -5.25 21.3125 C-7.23 21.3125 -9.21 21.3125 -11.25 21.3125 C-11.25 14.7125 -11.25 8.1125 -11.25 1.3125 C-8.94 1.3125 -6.63 1.3125 -4.25 1.3125 C-3.25 0.3125 -3.25 0.3125 0 0 Z " fill="#4D1F5B" transform="translate(195.25,36.6875)"/>
<path d="M0 0 C3.75 0.375 3.75 0.375 6.46484375 2.41015625 C9.28971995 6.07525204 9.33765247 8.76389497 9.0625 13.1875 C9.03994141 13.88037109 9.01738281 14.57324219 8.99414062 15.28710938 C8.93562661 16.98401573 8.8459548 18.67979861 8.75 20.375 C7.1 20.375 5.45 20.375 3.75 20.375 C3.68941406 19.44816406 3.62882812 18.52132812 3.56640625 17.56640625 C3.48261719 16.36886719 3.39882813 15.17132813 3.3125 13.9375 C3.23128906 12.74253906 3.15007812 11.54757813 3.06640625 10.31640625 C3.07343886 7.48929756 3.07343886 7.48929756 1.75 6.375 C-0.75 6.20833333 -0.75 6.20833333 -3.25 6.375 C-5.19090826 8.31590826 -4.64919435 11.84793902 -4.8125 14.4375 C-4.89628906 15.72785156 -4.98007812 17.01820312 -5.06640625 18.34765625 C-5.12699219 19.34667969 -5.18757813 20.34570312 -5.25 21.375 C-7.23 21.375 -9.21 21.375 -11.25 21.375 C-11.25 14.775 -11.25 8.175 -11.25 1.375 C-8.94 1.375 -6.63 1.375 -4.25 1.375 C-3.25 0.375 -3.25 0.375 0 0 Z " fill="#50245E" transform="translate(280.25,36.625)"/>
<path d="M0 0 C1.65 0 3.3 0 5 0 C5 9.57 5 19.14 5 29 C3.02 29 1.04 29 -1 29 C-3.26566343 29.43941523 -3.26566343 29.43941523 -5 30 C-5 29.01 -5 28.02 -5 27 C-5.66 26.67 -6.32 26.34 -7 26 C-5.35 25.34 -3.7 24.68 -2 24 C-1.27743171 19.51866426 -1.27743171 19.51866426 -1 15 C-2.98 14.34 -4.96 13.68 -7 13 C-6.34 12.01 -5.68 11.02 -5 10 C-3.68 10 -2.36 10 -1 10 C-0.67 6.7 -0.34 3.4 0 0 Z " fill="#3E0E4F" transform="translate(309,28)"/>
<path d="M0 0 C3.5 0.5625 3.5 0.5625 5.9375 2.125 C8.10396028 5.50467804 8.06288002 7.62233987 7.5 11.5625 C5.9375 14 5.9375 14 3.5 15.5625 C-0.47487617 16.13033945 -2.56489221 16.18590519 -5.9375 13.9375 C-7.98384007 10.82706309 -8.09807728 9.22572334 -7.5 5.5625 C-5.39039736 1.68083115 -4.40778028 0.70839326 0 0 Z " fill="#F9F7F9" transform="translate(101.5,39.4375)"/>
<path d="M0 0 C1.98 0 3.96 0 6 0 C6.11618764 3.91641711 6.18724654 7.83239101 6.25 11.75 C6.28351563 12.86117187 6.31703125 13.97234375 6.3515625 15.1171875 C6.36445313 16.18710937 6.37734375 17.25703125 6.390625 18.359375 C6.41157227 19.34389648 6.43251953 20.32841797 6.45410156 21.34277344 C5.8706693 24.75679321 4.72238619 25.92190781 2 28 C-1.25 28.25 -1.25 28.25 -4 28 C-4 26.35 -4 24.7 -4 23 C-2.68 23 -1.36 23 0 23 C0 15.41 0 7.82 0 0 Z " fill="#532961" transform="translate(173,37)"/>
<path d="M0 0 C2.6258382 1.78870171 3.34201385 3.11189509 5 6 C5.6172567 9.45663751 5.79126472 11.65815946 3.97265625 14.7421875 C1.82978463 17.46474172 0.31168493 18.89610502 -3 20 C-7.19987818 20.38887761 -9.29607238 20.45908323 -12.875 18.125 C-15.71941408 15.28058592 -16.20354172 13.6112568 -16.375 9.6875 C-16.35031361 5.85493835 -16.13918768 5.17581602 -13.625 2 C-8.99727048 -1.52588916 -5.56506999 -1.54478667 0 0 Z M-11.375 3.5625 C-13.62340519 6.93510779 -13.56783945 9.02512383 -13 13 C-11.58333333 15.58333333 -11.58333333 15.58333333 -9 17 C-5.5 17.75 -5.5 17.75 -2 17 C0.67838573 15.06873898 0.67838573 15.06873898 2 12 C2 8.1862249 1.84985071 5.97575452 -0.6875 3.0625 C-4.70878369 1.21488317 -7.63874458 1.10443723 -11.375 3.5625 Z " fill="#491B58" transform="translate(132,38)"/>
<path d="M0 0 C0.99 0 1.98 0 3 0 C3.33 1.65 3.66 3.3 4 5 C4.94875 5.12375 5.8975 5.2475 6.875 5.375 C10 6 10 6 12 8 C12.25 11.5 12.25 11.5 12 15 C10 17 10 17 7.6171875 17.1953125 C6.71226562 17.17210938 5.80734375 17.14890625 4.875 17.125 C3.26625 17.08375 1.6575 17.0425 0 17 C0 11.39 0 5.78 0 0 Z " fill="#532A61" transform="translate(185,87)"/>
<path d="M0 0 C0.80050781 0.12761719 1.60101563 0.25523438 2.42578125 0.38671875 C3.23402344 0.50660156 4.04226562 0.62648438 4.875 0.75 C5.48988281 0.85699219 6.10476562 0.96398437 6.73828125 1.07421875 C6.79234247 3.01141253 6.8311015 4.94903796 6.86328125 6.88671875 C6.88648438 7.96566406 6.9096875 9.04460937 6.93359375 10.15625 C6.73828125 13.07421875 6.73828125 13.07421875 4.73828125 16.07421875 C2.79296875 16.3671875 2.79296875 16.3671875 0.61328125 16.26171875 C-0.66546875 16.19984375 -1.94421875 16.13796875 -3.26171875 16.07421875 C-3.59171875 15.08421875 -3.92171875 14.09421875 -4.26171875 13.07421875 C-1.95171875 13.07421875 0.35828125 13.07421875 2.73828125 13.07421875 C3.06828125 12.41421875 3.39828125 11.75421875 3.73828125 11.07421875 C2.81015625 11.13609375 1.88203125 11.19796875 0.92578125 11.26171875 C-2.26171875 11.07421875 -2.26171875 11.07421875 -4.13671875 9.88671875 C-5.66831459 7.41914767 -5.689939 5.92902044 -5.26171875 3.07421875 C-3.58691281 0.79329256 -2.87491431 0.09434088 0 0 Z " fill="#50265E" transform="translate(249.26171875,91.92578125)"/>
<path d="M0 0 C1.65 0 3.3 0 5 0 C5 9.57 5 19.14 5 29 C3.35 29 1.7 29 0 29 C0 19.43 0 9.86 0 0 Z " fill="#360848" transform="translate(233,28)"/>
<path d="M0 0 C2.97 0 5.94 0 9 0 C9 6.27 9 12.54 9 19 C5.7 19 2.4 19 -1 19 C-1 18.34 -1 17.68 -1 17 C-1.99 16.67 -2.98 16.34 -4 16 C-3.21625 15.71125 -2.4325 15.4225 -1.625 15.125 C1.09671632 14.15087746 1.09671632 14.15087746 3 12 C3.58654327 8.3829832 3.15792086 7.22207622 1 4.1875 C0.34 3.465625 -0.32 2.74375 -1 2 C-0.67 1.34 -0.34 0.68 0 0 Z " fill="#3C0C4D" transform="translate(255,38)"/>
<path d="M0 0 C1.65 0 3.3 0 5 0 C2.24809142 9.87449551 -1.40127837 19.41030026 -5 29 C-6.65 29 -8.3 29 -10 29 C-7.24809142 19.12550449 -3.59872163 9.58969974 0 0 Z " fill="#E83D57" transform="translate(224,38)"/>
<path d="M0 0 C1.65 0 3.3 0 5 0 C3.327519 6.79262019 1.30778026 13.48087417 -0.875 20.125 C-1.10719238 20.88353271 -1.33938477 21.64206543 -1.57861328 22.42358398 C-2.3046875 24.5703125 -2.3046875 24.5703125 -4 28 C-6.6953125 28.9921875 -6.6953125 28.9921875 -9 29 C-7.50139658 18.84279906 -3.67268424 9.53253855 0 0 Z " fill="#E83D57" transform="translate(214,38)"/>
<path d="M0 0 C4.33333333 0 8.66666667 0 13 0 C13 1.65 13 3.3 13 5 C12.030625 5.28875 11.06125 5.5775 10.0625 5.875 C6.89335797 6.64214682 6.89335797 6.64214682 6 9 C5.77377919 10.70363822 5.59111527 12.41328701 5.4375 14.125 C5.35371094 15.03507812 5.26992187 15.94515625 5.18359375 16.8828125 C5.12300781 17.58148438 5.06242188 18.28015625 5 19 C3.35 19 1.7 19 0 19 C0 12.73 0 6.46 0 0 Z " fill="#3E0E4F" transform="translate(144,38)"/>
<path d="M0 0 C8 0 8 0 10.5 1.125 C12 3 12 3 12.4375 6 C12 9 12 9 10.9375 10.9375 C7.87530347 12.61676907 5.30629059 11.68621125 2 11 C2 12.65 2 14.3 2 16 C1.34 16 0.68 16 0 16 C0 10.72 0 5.44 0 0 Z " fill="#3B094C" transform="translate(97,92)"/>
<path d="M0 0 C4.19305185 -0.41108351 6.28112583 -0.5370899 9.71875 2.03125 C12.53725155 5.69916298 12.58759869 8.38975958 12.3125 12.8125 C12.27866211 13.85180664 12.27866211 13.85180664 12.24414062 14.91210938 C12.18562661 16.60901573 12.0959548 18.30479861 12 20 C10.35 20 8.7 20 7 20 C6.67 15.71 6.34 11.42 6 7 C3.69 6.01 1.38 5.02 -1 4 C-0.67 2.68 -0.34 1.36 0 0 Z " fill="#3E0E4F" transform="translate(277,37)"/>
<path d="M0 0 C2 2 2 2 2.3125 4.9375 C2 8 2 8 0.875 9.875 C-1.88090884 11.52854531 -3.85075452 11.39365568 -7 11 C-8.875 9.875 -8.875 9.875 -10 8 C-10.4375 5 -10.4375 5 -10 2 C-6.94783427 -1.63912068 -4.35383535 -1.23043173 0 0 Z " fill="#491E58" transform="translate(121,93)"/>
<path d="M0 0 C3.84676357 -0.30170695 6.29880611 -0.3868656 9.71875 1.5 C12.37568665 4.4117114 12.52763586 6.15902208 12.43945312 10.0390625 C12.39755859 10.76867188 12.35566406 11.49828125 12.3125 12.25 C12.27866211 13.36761719 12.27866211 13.36761719 12.24414062 14.5078125 C12.18543561 16.339409 12.09575757 18.16996653 12 20 C10.35 20 8.7 20 7 20 C6.67 15.71 6.34 11.42 6 7 C3.525 6.01 3.525 6.01 1 5 C0.1875 2.375 0.1875 2.375 0 0 Z " fill="#3F0F4F" transform="translate(192,37)"/>
<path d="M0 0 C3.0625 0.3125 3.0625 0.3125 5 1.375 C6.69431173 4.46462727 5.80201685 6.98467418 5.0625 10.3125 C4.0625 11.3125 4.0625 11.3125 0.625 11.5 C-2.9375 11.3125 -2.9375 11.3125 -4.9375 9.3125 C-5.1875 5.8125 -5.1875 5.8125 -4.9375 2.3125 C-2.9375 0.3125 -2.9375 0.3125 0 0 Z " fill="#F7F5F7" transform="translate(302.9375,41.6875)"/>
<path d="M0 0 C3.0625 0.3125 3.0625 0.3125 4.9375 1.5 C6.46909584 3.96757108 6.49072025 5.45769831 6.0625 8.3125 C4.9375 10.125 4.9375 10.125 3.0625 11.3125 C0.0625 11.75 0.0625 11.75 -2.9375 11.3125 C-4.875 9.625 -4.875 9.625 -5.9375 7.3125 C-5.61764525 2.8345335 -4.76027546 0.50641228 0 0 Z " fill="#F7F5F7" transform="translate(252.9375,41.6875)"/>
<path d="M0 0 C1.65 0 3.3 0 5 0 C5 6.27 5 12.54 5 19 C3.35 19 1.7 19 0 19 C0 12.73 0 6.46 0 0 Z " fill="#3D0A4D" transform="translate(162,38)"/>
<path d="M0 0 C2 2 2 2 2 6 C-0.64 6.33 -3.28 6.66 -6 7 C-6 7.66 -6 8.32 -6 9 C-3.36 8.34 -0.72 7.68 2 7 C1.34 8.32 0.68 9.64 0 11 C-3.375 11.125 -3.375 11.125 -7 11 C-9 9 -9 9 -9.3125 5.5625 C-9 2 -9 2 -7.875 0 C-5.01126853 -1.52732345 -3.04699809 -0.84278671 0 0 Z " fill="#3F0F4F" transform="translate(268,93)"/>
<path d="M0 0 C2.9375 0.8125 2.9375 0.8125 4.9375 3.8125 C4.9375 4.8025 4.9375 5.7925 4.9375 6.8125 C1.9675 6.8125 -1.0025 6.8125 -4.0625 6.8125 C-3.7325 7.4725 -3.4025 8.1325 -3.0625 8.8125 C-0.7525 8.8125 1.5575 8.8125 3.9375 8.8125 C2.9475 10.2975 2.9475 10.2975 1.9375 11.8125 C-1 12.25 -1 12.25 -4.0625 11.8125 C-6 10.1875 -6 10.1875 -7.0625 7.8125 C-6.9375 4.6875 -6.9375 4.6875 -6.0625 1.8125 C-3.0625 -0.1875 -3.0625 -0.1875 0 0 Z " fill="#481D57" transform="translate(206.0625,92.1875)"/>
<path d="M0 0 C0.99 0 1.98 0 3 0 C3.19800942 3.70784992 3.38153245 7.41628235 3.5625 11.125 C3.61857422 12.17171875 3.67464844 13.2184375 3.73242188 14.296875 C3.97221468 19.34851007 4.16052 24.03125509 3 29 C2.01 29 1.02 29 0 29 C0 19.43 0 9.86 0 0 Z " fill="#39064A" transform="translate(91,28)"/>
<path d="M0 0 C2 2 2 2 2 6 C-0.97 6 -3.94 6 -7 6 C-6.67 6.66 -6.34 7.32 -6 8 C-2.95613276 8.08226668 -0.92824652 7.97608217 2 7 C1.34 8.32 0.68 9.64 0 11 C-3.375 11.125 -3.375 11.125 -7 11 C-9 9 -9 9 -9.3125 5.5625 C-9 2 -9 2 -7.875 0 C-5.01126853 -1.52732345 -3.04699809 -0.84278671 0 0 Z " fill="#71517D" transform="translate(240,93)"/>
<path d="M0 0 C0.99 0.33 1.98 0.66 3 1 C3.33 2.98 3.66 4.96 4 7 C4.66 7 5.32 7 6 7 C6.33 5.02 6.66 3.04 7 1 C7.99 0.67 8.98 0.34 10 0 C10.66 1.98 11.32 3.96 12 6 C12.45375 5.175 12.9075 4.35 13.375 3.5 C13.91125 2.675 14.4475 1.85 15 1 C15.66 1 16.32 1 17 1 C16.01 4.63 15.02 8.26 14 12 C13.01 12 12.02 12 11 12 C10.34 10.02 9.68 8.04 9 6 C8.01 7.98 7.02 9.96 6 12 C5.01 11.67 4.02 11.34 3 11 C2.05078125 9.00390625 2.05078125 9.00390625 1.3125 6.5625 C1.06113281 5.75941406 0.80976563 4.95632812 0.55078125 4.12890625 C0 2 0 2 0 0 Z " fill="#431753" transform="translate(212,92)"/>
<path d="M0 0 C2 2 2 2 2 6 C-0.97 6 -3.94 6 -7 6 C-6.67 6.66 -6.34 7.32 -6 8 C-3.69 8 -1.38 8 1 8 C1 8.66 1 9.32 1 10 C-1.76250036 11.38125018 -3.94731099 11.19079306 -7 11 C-9 9 -9 9 -9.3125 5.5625 C-9 2 -9 2 -7.875 0 C-5.01126853 -1.52732345 -3.04699809 -0.84278671 0 0 Z " fill="#3C0D4D" transform="translate(160,93)"/>
<path d="M0 0 C3.55098628 -0.33032431 5.5397787 -0.2568677 8.6875 1.5 C11.38118387 4.41209067 11.52815519 6.13617155 11.43945312 10.0390625 C11.39755859 10.76867188 11.35566406 11.49828125 11.3125 12.25 C11.27866211 13.36761719 11.27866211 13.36761719 11.24414062 14.5078125 C11.18543561 16.339409 11.09575757 18.16996653 11 20 C10.01 20 9.02 20 8 20 C7.67 14.72 7.34 9.44 7 4 C4.36 3.67 1.72 3.34 -1 3 C-0.67 2.01 -0.34 1.02 0 0 Z " fill="#401250" transform="translate(75,37)"/>
<path d="M0 0 C1 1 1 1 1.09765625 3.28515625 C1.08605469 4.20167969 1.07445312 5.11820312 1.0625 6.0625 C1.05347656 6.98160156 1.04445313 7.90070313 1.03515625 8.84765625 C1.02355469 9.55792969 1.01195312 10.26820312 1 11 C0.34 11 -0.32 11 -1 11 C-1.33 8.36 -1.66 5.72 -2 3 C-3.32 2.67 -4.64 2.34 -6 2 C-6.33 4.97 -6.66 7.94 -7 11 C-7.99 11 -8.98 11 -10 11 C-10 7.37 -10 3.74 -10 0 C-5.66473162 -0.86705368 -4.00869538 -1.11352649 0 0 Z " fill="#461C56" transform="translate(283,93)"/>
<path d="M0 0 C0.99 0 1.98 0 3 0 C4.53266582 3.06533164 4.10276471 6.26754272 4.0625 9.625 C4.05798828 10.33140625 4.05347656 11.0378125 4.04882812 11.765625 C4.03703875 13.51045275 4.01910324 15.255237 4 17 C2.68 17 1.36 17 0 17 C0 11.39 0 5.78 0 0 Z " fill="#623B6F" transform="translate(68,41)"/>
<path d="M0 0 C0.33 0.99 0.66 1.98 1 3 C0.01 3 -0.98 3 -2 3 C-2 2.34 -2 1.68 -2 1 C-5.11785113 1.64644661 -5.11785113 1.64644661 -6 4 C-5.21625 3.95875 -4.4325 3.9175 -3.625 3.875 C-1 4 -1 4 1 6 C0.46428571 9.53571429 0.46428571 9.53571429 -1 11 C-3.9375 11.25 -3.9375 11.25 -7 11 C-7.66 10.01 -8.32 9.02 -9 8 C-6.36 8.33 -3.72 8.66 -1 9 C-1.89335797 6.64214682 -1.89335797 6.64214682 -5.0625 5.875 C-6.031875 5.58625 -7.00125 5.2975 -8 5 C-8 3.35 -8 1.7 -8 0 C-5.13822943 -1.43088528 -3.06624227 -0.59991697 0 0 Z " fill="#50285F" transform="translate(93,93)"/>
<path d="M0 0 C1.20272819 2.40545638 1.10071472 3.94996953 1.0625 6.625 C1.05347656 7.44226563 1.04445312 8.25953125 1.03515625 9.1015625 C1.02355469 9.72804688 1.01195312 10.35453125 1 11 C0.34 11 -0.32 11 -1 11 C-1.33 8.36 -1.66 5.72 -2 3 C-3.94603274 2.40929986 -3.94603274 2.40929986 -6 2 C-7.49743119 3.49743119 -7.33202693 4.98824239 -7.5625 7.0625 C-7.7790625 9.0115625 -7.7790625 9.0115625 -8 11 C-8.66 11 -9.32 11 -10 11 C-10 7.37 -10 3.74 -10 0 C-5.98750587 -1.00312353 -3.94288658 -0.96381672 0 0 Z " fill="#320145" transform="translate(175,93)"/>
<path d="M0 0 C0.80050781 0.12761719 1.60101563 0.25523438 2.42578125 0.38671875 C3.23402344 0.50660156 4.04226562 0.62648438 4.875 0.75 C5.48988281 0.85699219 6.10476562 0.96398437 6.73828125 1.07421875 C6.40828125 3.05421875 6.07828125 5.03421875 5.73828125 7.07421875 C4.74828125 5.75421875 3.75828125 4.43421875 2.73828125 3.07421875 C1.08828125 3.40421875 -0.56171875 3.73421875 -2.26171875 4.07421875 C-1.93171875 5.39421875 -1.60171875 6.71421875 -1.26171875 8.07421875 C1.04828125 8.07421875 3.35828125 8.07421875 5.73828125 8.07421875 C5.40828125 9.39421875 5.07828125 10.71421875 4.73828125 12.07421875 C4.73828125 11.41421875 4.73828125 10.75421875 4.73828125 10.07421875 C3.64515625 10.30109375 2.55203125 10.52796875 1.42578125 10.76171875 C-2.26171875 11.07421875 -2.26171875 11.07421875 -4.19921875 9.94921875 C-5.62238866 7.43774244 -5.68846391 5.91918647 -5.26171875 3.07421875 C-3.58691281 0.79329256 -2.87491431 0.09434088 0 0 Z " fill="#421452" transform="translate(249.26171875,91.92578125)"/>
<path d="M0 0 C0.598125 0.226875 1.19625 0.45375 1.8125 0.6875 C2.4375 3.0625 2.4375 3.0625 2.8125 5.6875 C2.1525 6.3475 1.4925 7.0075 0.8125 7.6875 C-1.8125 7.3125 -1.8125 7.3125 -4.1875 6.6875 C-4.875 4.875 -4.875 4.875 -5.1875 2.6875 C-3.58493056 0.24147296 -2.95482043 -0.4221172 0 0 Z " fill="#EFECF0" transform="translate(118.1875,94.3125)"/>
<path d="M0 0 C0.598125 0.226875 1.19625 0.45375 1.8125 0.6875 C2.4375 3.0625 2.4375 3.0625 2.8125 5.6875 C2.1525 6.3475 1.4925 7.0075 0.8125 7.6875 C-1.8125 7.3125 -1.8125 7.3125 -4.1875 6.6875 C-4.875 4.875 -4.875 4.875 -5.1875 2.6875 C-3.58493056 0.24147296 -2.95482043 -0.4221172 0 0 Z " fill="#EEEBEF" transform="translate(104.1875,94.3125)"/>
<path d="M0 0 C2.125 0.375 2.125 0.375 4 1 C4.625 3.375 4.625 3.375 5 6 C4.34 6.66 3.68 7.32 3 8 C0.375 7.625 0.375 7.625 -2 7 C-2.125 4.625 -2.125 4.625 -2 2 C-1.34 1.34 -0.68 0.68 0 0 Z " fill="#F5F3F5" transform="translate(190,94)"/>
<path d="M0 0 C2.9375 1.5 2.9375 1.5 5 3 C3.02 3.99 3.02 3.99 1 5 C0.67 4.67 0.34 4.34 0 4 C-4.23314767 3.76038787 -7.36736489 3.67511353 -11 6 C-10.6875 4.125 -10.6875 4.125 -10 2 C-6.27420911 -0.48386059 -4.41288598 -0.3804212 0 0 Z " fill="#4B1E5A" transform="translate(105,37)"/>
<path d="M0 0 C0.66 0 1.32 0 2 0 C2 1.32 2 2.64 2 4 C3.32 4.33 4.64 4.66 6 5 C4.68 5 3.36 5 2 5 C2.33 7.31 2.66 9.62 3 12 C3.99 12.33 4.98 12.66 6 13 C6 13.66 6 14.32 6 15 C4.33388095 15.042721 2.66617115 15.04063832 1 15 C0 14 0 14 -0.09765625 11.93359375 C-0.08025391 10.69802734 -0.08025391 10.69802734 -0.0625 9.4375 C-0.05347656 8.61121094 -0.04445312 7.78492187 -0.03515625 6.93359375 C-0.02355469 6.29550781 -0.01195312 5.65742187 0 5 C-0.99 4.67 -1.98 4.34 -3 4 C-2.01 4 -1.02 4 0 4 C0 2.68 0 1.36 0 0 Z " fill="#360848" transform="translate(137,89)"/>
<path d="M0 0 C1.67542976 0.28604898 3.34385343 0.61781233 5 1 C5 2.65 5 4.3 5 6 C2.625 6.625 2.625 6.625 0 7 C-0.66 6.34 -1.32 5.68 -2 5 C-1.46428571 1.46428571 -1.46428571 1.46428571 0 0 Z " fill="#EEEBEF" transform="translate(248,94)"/>
<path d="M0 0 C2.31 0 4.62 0 7 0 C7 0.66 7 1.32 7 2 C6.0409375 2.2784375 6.0409375 2.2784375 5.0625 2.5625 C2.57873787 3.94246056 2.57873787 3.94246056 2.25 7.625 C2.1675 8.73875 2.085 9.8525 2 11 C1.34 11 0.68 11 0 11 C0 7.37 0 3.74 0 0 Z " fill="#3C0B4D" transform="translate(126,93)"/>
<path d="M0 0 C2 2 2 2 2.375 4.375 C2 7 2 7 0.25 9.3125 C-2 11 -2 11 -6 11 C-6 10.34 -6 9.68 -6 9 C-5.195625 8.21625 -4.39125 7.4325 -3.5625 6.625 C-1.18189674 4.18633325 -0.36364082 3.2727674 0 0 Z " fill="#3E0B4E" transform="translate(134,46)"/>
<path d="M0 0 C4.27452603 -0.19881516 7.08091821 0.36704925 11 2 C11.66 1.67 12.32 1.34 13 1 C13.33 1.99 13.66 2.98 14 4 C12.02 4.99 12.02 4.99 10 6 C10 5.34 10 4.68 10 4 C8.68 4.33 7.36 4.66 6 5 C5.67 4.01 5.34 3.02 5 2 C3.35 1.67 1.7 1.34 0 1 C0 0.67 0 0.34 0 0 Z " fill="#522860" transform="translate(61,37)"/>
<path d="M0 0 C0.66 0.33 1.32 0.66 2 1 C2.625 3.5625 2.625 3.5625 3 6 C5.31 6 7.62 6 10 6 C9.01 7.485 9.01 7.485 8 9 C5.0625 9.4375 5.0625 9.4375 2 9 C0.0625 7.3125 0.0625 7.3125 -1 5 C-0.6875 2.25 -0.6875 2.25 0 0 Z " fill="#3C0D4D" transform="translate(200,95)"/>
<path d="M0 0 C2 0.25 2 0.25 4 1 C4.33 1.99 4.66 2.98 5 4 C5.66 4.33 6.32 4.66 7 5 C4.03 5 1.06 5 -2 5 C-1 1 -1 1 0 0 Z " fill="#9984A1" transform="translate(263,94)"/>
<path d="M0 0 C2 0.25 2 0.25 4 1 C4.33 1.99 4.66 2.98 5 4 C5.66 4.33 6.32 4.66 7 5 C4.03 5 1.06 5 -2 5 C-1 1 -1 1 0 0 Z " fill="#9883A0" transform="translate(155,94)"/>
<path d="M0 0 C5.45454545 0.45454545 5.45454545 0.45454545 8 3 C8 3.99 8 4.98 8 6 C7.34 6 6.68 6 6 6 C5.34 5.01 4.68 4.02 4 3 C0.73045798 3.56371414 -0.82575883 4.49962266 -3 7 C-2.25 2.25 -2.25 2.25 0 0 Z " fill="#400E50" transform="translate(234,92)"/>
<path d="M0 0 C0 0.66 0 1.32 0 2 C0.66 2.33 1.32 2.66 2 3 C2.33 2.34 2.66 1.68 3 1 C3 1.99 3 2.98 3 4 C-0.3 4.33 -3.6 4.66 -7 5 C-6.625 2.5625 -6.625 2.5625 -6 0 C-3.50907189 -1.24546405 -2.58919267 -0.7767578 0 0 Z " fill="#A08CA7" transform="translate(208,95)"/>
<path d="M0 0 C1.67542976 0.28604898 3.34385343 0.61781233 5 1 C4.67 2.32 4.34 3.64 4 5 C2.68 5.33 1.36 5.66 0 6 C-0.38218767 4.34385343 -0.71395102 2.67542976 -1 1 C-0.67 0.67 -0.34 0.34 0 0 Z " fill="#421452" transform="translate(174,29)"/>
<path d="M0 0 C1.67542976 0.28604898 3.34385343 0.61781233 5 1 C4.67 2.65 4.34 4.3 4 6 C2.68 5.67 1.36 5.34 0 5 C-0.5625 3.0625 -0.5625 3.0625 -1 1 C-0.67 0.67 -0.34 0.34 0 0 Z " fill="#441654" transform="translate(162,29)"/>
<path d="M0 0 C1.65 0.33 3.3 0.66 5 1 C4.125 4.875 4.125 4.875 3 6 C0.0625 6.25 0.0625 6.25 -3 6 C-3.66 5.01 -4.32 4.02 -5 3 C-2.36 3.33 0.28 3.66 3 4 C2.01 2.68 1.02 1.36 0 0 Z " fill="#390B4B" transform="translate(89,98)"/>
<path d="M0 0 C0.66 0 1.32 0 2 0 C2.20625 0.804375 2.4125 1.60875 2.625 2.4375 C3.07875 3.283125 3.5325 4.12875 4 5 C7.05272465 5.89830839 7.05272465 5.89830839 10 6 C9.67 6.66 9.34 7.32 9 8 C3.57142857 8.36190476 3.57142857 8.36190476 1.125 6.8125 C-0.34781139 4.43963721 -0.22223194 2.74086056 0 0 Z " fill="#380A4A" transform="translate(111,96)"/>
<path d="M0 0 C1.485 0.99 1.485 0.99 3 2 C4.9896995 2.39013716 6.99019869 2.73202649 9 3 C9.33 3.99 9.66 4.98 10 6 C3.375 6.25 3.375 6.25 0 4 C0 2.68 0 1.36 0 0 Z " fill="#4C1F5A" transform="translate(95,52)"/>
<path d="M0 0 C0.99 0 1.98 0 3 0 C3 0.66 3 1.32 3 2 C5.64 1.34 8.28 0.68 11 0 C10.34 1.32 9.68 2.64 9 4 C6.69 4 4.38 4 2 4 C1.34 2.68 0.68 1.36 0 0 Z " fill="#4E255D" transform="translate(259,100)"/>
<path d="M0 0 C5.5952381 0.5952381 5.5952381 0.5952381 8 3 C8 3.99 8 4.98 8 6 C7.34 6 6.68 6 6 6 C5.34 5.01 4.68 4.02 4 3 C2.35 3.33 0.7 3.66 -1 4 C-1 1 -1 1 0 0 Z " fill="#441354" transform="translate(154,92)"/>
<path d="M0 0 C0 0.33 0 0.66 0 1 C-1.7015625 1.433125 -1.7015625 1.433125 -3.4375 1.875 C-4.613125 2.24625 -5.78875 2.6175 -7 3 C-7.33 3.66 -7.66 4.32 -8 5 C-8.66 5 -9.32 5 -10 5 C-10 3.68 -10 2.36 -10 1 C-6.1496895 -1.56687367 -4.41430237 -0.83288724 0 0 Z " fill="#411051" transform="translate(66,39)"/>
<path d="M0 0 C2.97 0 5.94 0 9 0 C8.67 0.99 8.34 1.98 8 3 C5.69 3 3.38 3 1 3 C0.67 2.01 0.34 1.02 0 0 Z " fill="#E5E0E7" transform="translate(153,99)"/>
<path d="M0 0 C2.97 0 5.94 0 9 0 C8.67 0.99 8.34 1.98 8 3 C5.69 3 3.38 3 1 3 C0.67 2.01 0.34 1.02 0 0 Z " fill="#EDE9EE" transform="translate(202,99)"/>
<path d="M0 0 C0.391875 0.61875 0.78375 1.2375 1.1875 1.875 C3.27717491 4.32496368 4.97463327 5.01879998 8 6 C8 6.33 8 6.66 8 7 C5.03 7 2.06 7 -1 7 C-0.67 4.69 -0.34 2.38 0 0 Z " fill="#360448" transform="translate(186,97)"/>
<path d="M0 0 C1.98 0 3.96 0 6 0 C6.33 0.66 6.66 1.32 7 2 C6.34 2.66 5.68 3.32 5 4 C1.875 3.625 1.875 3.625 -1 3 C-0.67 2.01 -0.34 1.02 0 0 Z " fill="#481A57" transform="translate(75,37)"/>
<path d="M0 0 C2.97 0 5.94 0 9 0 C6 3 6 3 3.3125 3.1875 C2.1678125 3.0946875 2.1678125 3.0946875 1 3 C0.67 2.01 0.34 1.02 0 0 Z " fill="#EFECF0" transform="translate(233,99)"/>
<path d="M0 0 C2.97 0 5.94 0 9 0 C6 3 6 3 3.3125 3.1875 C2.1678125 3.0946875 2.1678125 3.0946875 1 3 C0.67 2.01 0.34 1.02 0 0 Z " fill="#F3F1F4" transform="translate(261,99)"/>
<path d="M0 0 C2.64 0 5.28 0 8 0 C6.625 1.5 6.625 1.5 5 3 C4.34 3 3.68 3 3 3 C2.67 3.66 2.34 4.32 2 5 C1.34 3.35 0.68 1.7 0 0 Z " fill="#512860" transform="translate(97,92)"/>
<path d="M0 0 C0.66 0 1.32 0 2 0 C2 1.32 2 2.64 2 4 C3.32 4.33 4.64 4.66 6 5 C3.1875 5.625 3.1875 5.625 0 6 C-0.99 5.34 -1.98 4.68 -3 4 C-2.01 4 -1.02 4 0 4 C0 2.68 0 1.36 0 0 Z " fill="#2E0142" transform="translate(137,89)"/>
<path d="M0 0 C0.78375 0.04125 1.5675 0.0825 2.375 0.125 C2.705 1.115 3.035 2.105 3.375 3.125 C0.735 2.795 -1.905 2.465 -4.625 2.125 C-2.625 0.125 -2.625 0.125 0 0 Z " fill="#DCD6DF" transform="translate(88.625,98.875)"/>
<path d="M0 0 C-3.18762365 2.12508244 -5.26512223 2.5020163 -9 3 C-8.67 2.01 -8.34 1.02 -8 0 C-5.13822943 -1.43088528 -3.06624227 -0.59991697 0 0 Z " fill="#481A57" transform="translate(175,93)"/>
<path d="M0 0 C0.99 0.33 1.98 0.66 3 1 C3.625 3.375 3.625 3.375 4 6 C3.34 6.66 2.68 7.32 2 8 C1.34 5.36 0.68 2.72 0 0 Z " fill="#552E63" transform="translate(212,92)"/>
<path d="M0 0 C3.875 0.875 3.875 0.875 5 2 C5.04063832 3.66617115 5.042721 5.33388095 5 7 C4.34 7 3.68 7 3 7 C2.690625 6.21625 2.38125 5.4325 2.0625 4.625 C1.07124962 2.07669872 1.07124962 2.07669872 0 0 Z " fill="#3A074B" transform="translate(104,93)"/>
<path d="M0 0 C1.32 0.33 2.64 0.66 4 1 C4 3.31 4 5.62 4 8 C2.22293791 5.33440687 1.12451727 2.9719385 0 0 Z " fill="#5B3269" transform="translate(133,43)"/>
</svg>
