<?xml version="1.0" encoding="UTF-8"?>
<svg version="1.1" xmlns="http://www.w3.org/2000/svg" width="1200" height="1257">
<path d="M0 0 C18.36457019 14.05391545 29.05337009 30.96845116 39.44140625 51.3046875 C42.25893809 56.81472599 45.1947836 62.2510908 48.1796875 67.671875 C53.15649334 76.73380896 58.02619173 85.84947307 62.8671875 94.984375 C69.79154941 108.04768954 76.7713018 121.07953944 83.79492188 134.08984375 C94.38324774 153.70688015 104.91962816 173.35162603 115.44006348 193.00512695 C123.0177669 207.16097586 130.60547353 221.31127788 138.22290039 235.44580078 C142.80892101 243.95818685 147.37670877 252.48026584 151.93994141 261.00488281 C156.44549302 269.42113239 160.96320606 277.83071192 165.4921875 286.234375 C170.65632919 295.81659729 175.80280914 305.40815865 180.93994141 315.00488281 C185.44549302 323.42113239 189.96320606 331.83071192 194.4921875 340.234375 C199.65632919 349.81659729 204.80280914 359.40815865 209.93994141 369.00488281 C214.44549308 377.42113252 218.96324457 385.83069109 223.4921875 394.234375 C231.1674175 408.47740433 238.80444979 422.74083691 246.44006348 437.00512695 C253.44386199 450.08886855 260.45262223 463.16983136 267.4921875 476.234375 C269.22316215 479.44879615 270.95392913 482.66332899 272.68457031 485.87792969 C273.93330499 488.19662288 275.1825978 490.51500767 276.43261719 492.83300781 C280.81070626 500.95365256 285.16683184 509.08547869 289.4921875 517.234375 C289.93884766 518.07274902 290.38550781 518.91112305 290.84570312 519.77490234 C295.73758053 529.00822087 299.65162995 538.16330731 302.4921875 548.234375 C302.811875 549.2965625 303.1315625 550.35875 303.4609375 551.453125 C305.66231293 560.17709428 305.86367798 568.89794071 305.9921875 577.859375 C306.0228833 579.05506104 306.0535791 580.25074707 306.08520508 581.48266602 C306.0867057 588.9932801 305.1014063 595.7317182 303.30426025 602.99613953 C303.08146778 603.91222447 302.85867531 604.82830942 302.62913156 605.77215451 C300.28378137 615.29154541 297.62495198 624.71417337 294.90527344 634.13208008 C294.36341751 636.02180995 293.82198316 637.91166074 293.28092957 639.80162048 C291.82301257 644.88997016 290.35936555 649.97665508 288.89469051 655.06306291 C287.32930007 660.50338889 285.76960674 665.945348 284.20928955 671.38713074 C281.23256617 681.76578277 278.25125042 692.14310929 275.26806569 702.51990575 C269.70600857 721.86783658 264.15350627 741.21851244 258.60045242 760.56902885 C257.30631826 765.07862437 256.01196882 769.58815802 254.71744919 774.0976429 C245.90025765 804.81373937 237.11750074 835.53936745 228.390625 866.28125 C228.13510282 867.18135158 227.87958064 868.08145316 227.61631536 869.00883055 C222.96407958 885.39802426 218.31822891 901.78902686 213.67407227 918.18051147 C212.75343476 921.42983467 211.83277895 924.67915268 210.91210938 927.9284668 C210.68683028 928.72356553 210.46155119 929.51866426 210.22944546 930.33785689 C206.54599994 943.33753341 202.85566839 956.33524237 199.15872955 969.33108807 C197.01260234 976.8763258 194.87068263 984.42272028 192.73681641 991.97143555 C190.79721353 998.83286311 188.85048457 1005.69222289 186.89536679 1012.54924637 C185.88381699 1016.09784063 184.87543502 1019.64724976 183.87600327 1023.19927788 C174.39169436 1056.8866364 162.53322135 1087.05941539 130.55517578 1105.34179688 C114.92841186 1113.91759982 99.11066759 1118.29228644 81.2421875 1118.546875 C80.5291748 1118.56459961 79.81616211 1118.58232422 79.08154297 1118.60058594 C64.67434646 1118.58165816 50.47025523 1114.35111626 36.7578125 1110.34375 C35.0439621 1109.8501565 33.32987318 1109.35739058 31.61557007 1108.8653717 C27.92971641 1107.80582745 24.24543627 1106.74103741 20.56231689 1105.67202759 C14.58891182 1103.93851895 8.61192877 1102.21757989 2.63427734 1100.4987793 C0.54476258 1099.89783522 -1.54474541 1099.29686756 -3.63424683 1098.69587708 C-4.68444881 1098.39381662 -5.7346508 1098.09175617 -6.81667709 1097.78054237 C-10.06368011 1096.84613618 -13.31034437 1095.91056151 -16.55691528 1094.97465515 C-38.71408217 1088.58854207 -60.89329211 1082.2805803 -83.07507324 1075.98059082 C-89.94913023 1074.02821915 -96.82275747 1072.07433767 -103.69628906 1070.12011719 C-106.01452605 1069.46102794 -108.33276335 1068.8019398 -110.65100098 1068.14285278 C-111.80109146 1067.81587528 -112.95118195 1067.48889778 -114.13612366 1067.15201187 C-118.79134751 1065.82857433 -123.44663764 1064.50537001 -128.10192871 1063.18216896 C-143.01105393 1058.94444256 -157.91970375 1054.705046 -172.828125 1050.46484375 C-173.95009151 1050.14573847 -175.07205803 1049.82663319 -176.22802353 1049.49785805 C-181.889835 1047.88753965 -187.55163912 1046.27719544 -193.21343994 1044.6668396 C-203.42572808 1041.76222627 -213.63808148 1038.85784239 -223.85042953 1035.95343971 C-229.52789316 1034.33876073 -235.20535262 1032.72406713 -240.8828125 1031.109375 C-243.15364581 1030.4635416 -245.42447915 1029.81770826 -247.6953125 1029.171875 C-288.5703125 1017.546875 -329.4453125 1005.921875 -370.3203125 994.296875 C-371.4443728 993.97718813 -372.56843309 993.65750126 -373.72655582 993.32812691 C-375.99741142 992.68228724 -378.268267 992.03644755 -380.53912258 991.39060783 C-386.21586531 989.77612127 -391.89260814 988.16163508 -397.5693512 986.54714966 C-407.79216855 983.63974454 -418.01498515 980.73233679 -428.23779774 977.82491493 C-433.92025004 976.20879559 -439.60270298 974.59267846 -445.28515625 972.9765625 C-446.4100691 972.65663204 -447.53498196 972.33670158 -448.69398308 972.00707626 C-461.13597656 968.46851904 -473.57798332 964.93000854 -486.02001953 961.39160156 C-487.13286662 961.07511563 -488.24571371 960.7586297 -489.39228344 960.43255329 C-495.02111761 958.83175602 -500.64996175 957.23099385 -506.27882385 955.6302948 C-517.49967598 952.43933416 -528.72034954 949.24774784 -539.94067383 946.05493164 C-544.4395941 944.77482578 -548.93853843 943.49480448 -553.4375 942.21484375 C-554.55712568 941.89630243 -555.67675137 941.57776112 -556.8303051 941.24956703 C-572.33626493 936.83841968 -587.8447097 932.43609303 -603.35500354 928.04021454 C-604.36001523 927.75537579 -604.36001523 927.75537579 -605.3853302 927.46478271 C-606.0564941 927.27456291 -606.72765799 927.08434311 -607.41916019 926.88835907 C-616.11346773 924.42406793 -624.80696232 921.95691096 -633.50039196 919.48952484 C-641.18212576 917.30945532 -648.86489393 915.13307981 -656.54841232 912.95930576 C-661.31490531 911.60984907 -666.08040743 910.25691907 -670.84565353 908.90306664 C-673.04292387 908.27955394 -675.24059333 907.65744561 -677.43870926 907.03692055 C-687.48476357 904.20023463 -697.51275538 901.32629652 -707.43676758 898.08422852 C-708.13536487 897.85997916 -708.83396215 897.63572981 -709.55372906 897.40468502 C-721.96718055 893.2536394 -732.88492218 886.01315213 -742.5078125 877.234375 C-743.28511719 876.53828125 -744.06242188 875.8421875 -744.86328125 875.125 C-761.21903034 859.69823493 -773.25361155 835.80784778 -774.70068359 813.22436523 C-774.78976231 809.70683584 -774.84251819 806.19030107 -774.8828125 802.671875 C-774.92019531 801.49173828 -774.95757813 800.31160156 -774.99609375 799.09570312 C-775.21399986 776.30030257 -765.93698931 753.35743325 -759.64219284 731.66610718 C-758.34443812 727.18993005 -757.05247754 722.71208098 -755.76000977 718.234375 C-753.66002042 710.9610357 -751.55730721 703.68848992 -749.45263672 696.41650391 C-746.90174199 687.60160273 -744.35980941 678.78415819 -741.82421875 669.96484375 C-741.4612973 668.70257965 -741.09837585 667.44031555 -740.72445679 666.13980103 C-739.99685936 663.60899645 -739.26928966 661.0781839 -738.54174805 658.54736328 C-736.63764311 651.92560622 -734.73123204 645.30451375 -732.82421875 638.68359375 C-732.623232 637.98579174 -732.42224525 637.28798973 -732.215168 636.56904221 C-728.32588278 623.06699457 -724.43075827 609.56663248 -720.53515625 596.06640625 C-720.22739761 594.99985306 -719.91963898 593.93329987 -719.60255432 592.83442688 C-718.65479936 589.54993577 -717.70703891 586.26544624 -716.75927734 582.98095703 C-715.46711398 578.50293212 -714.17495936 574.02490468 -712.8828125 569.546875 C-712.56182838 568.43449211 -712.24084427 567.32210922 -711.91013336 566.17601776 C-702.69563528 534.24226696 -693.49602028 502.30429352 -684.3203125 470.359375 C-683.80358138 468.56049524 -683.28684759 466.76161625 -682.77011108 464.96273804 C-680.76935446 457.9975577 -678.76871906 451.03234255 -676.76820374 444.0670929 C-673.5649624 432.91430669 -670.36147717 421.76159068 -667.15625 410.609375 C-666.94451834 409.87267893 -666.73278667 409.13598286 -666.5146389 408.37696266 C-663.20147716 396.85024668 -659.88039285 385.32583233 -656.55366516 373.80302429 C-654.61603898 367.08876655 -652.68810273 360.37187326 -650.77204895 353.65142822 C-649.68646832 349.849365 -648.59334263 346.04950167 -647.49819946 342.25018311 C-647.01994245 340.58471087 -646.5449182 338.91830536 -646.07382202 337.25079346 C-643.74926963 329.02672411 -641.17262571 321.01144747 -637.94140625 313.09375 C-637.66294861 312.41005844 -637.38449097 311.72636688 -637.09759521 311.0219574 C-625.38039967 283.21022884 -602.18451909 266.56049798 -576.56463623 252.5944519 C-573.39343367 250.86551822 -570.22849908 249.12515661 -567.0625 247.38671875 C-566.42313507 247.03603836 -565.78377014 246.68535797 -565.12503052 246.3240509 C-559.02428481 242.97560646 -552.95065204 239.57955967 -546.8828125 236.171875 C-538.26982345 231.33754967 -529.64441671 226.52638886 -521.0078125 221.734375 C-512.33078364 216.91938708 -503.66328219 212.0880118 -495.0078125 207.234375 C-485.21712822 201.74415584 -475.40878078 196.28639973 -465.59375 190.83984375 C-458.05559906 186.6548703 -450.52806071 182.45142558 -443.0078125 178.234375 C-433.21712822 172.74415584 -423.40878078 167.28639973 -413.59375 161.83984375 C-406.0555988 157.65487015 -398.52809167 153.45137065 -391.0078125 149.234375 C-375.56852183 140.57798016 -360.09025337 131.99189989 -344.609375 123.41015625 C-334.09447322 117.57851277 -323.59055231 111.73051361 -313.1328125 105.796875 C-303.84064854 100.52457488 -294.49518715 95.35273597 -285.13433838 90.20388794 C-277.06372652 85.76358806 -269.01757325 81.28382834 -261.0078125 76.734375 C-251.75820449 71.48070246 -242.45419547 66.33007965 -233.13378906 61.20361328 C-225.06336158 56.76340161 -217.01743659 52.28365432 -209.0078125 47.734375 C-200.41834705 42.85658505 -191.78656547 38.05928884 -183.1328125 33.296875 C-174.03098009 28.2877498 -164.94315722 23.25586346 -155.8828125 18.171875 C-144.79037752 11.94952852 -133.69311187 5.73661106 -122.55859375 -0.41015625 C-119.07684683 -2.33246533 -115.61115613 -4.27344451 -112.17578125 -6.27734375 C-77.23413144 -26.35585698 -32.63097611 -22.97383365 0 0 Z " fill="#00A0E2" transform="translate(834.5078125,78.765625)"/>
<path d="M0 0 C0.33 0 0.66 0 1 0 C1.495 98.01 1.495 98.01 2 198 C4.64 194.04 7.28 190.08 10 186 C25.26706054 163.62648627 41.32235843 141.6671046 60 122 C60.51079102 121.46052734 61.02158203 120.92105469 61.54785156 120.36523438 C83.00223932 97.86654801 111.14417705 79.69685065 143.01000977 77.82299805 C181.76631126 77.07648345 213.07421972 85.98400075 241.5 113.125 C254.99035951 126.97996382 265.132207 143.78343735 271.4375 162.0625 C271.66026611 162.69647705 271.88303223 163.3304541 272.11254883 163.98364258 C272.85152576 166.30365995 273.42729877 168.63272196 274 171 C274.25302037 172.04150648 274.50604074 173.08301296 274.7667284 174.15608025 C278.00275237 190.10839491 277.40666145 206.34073737 277.34819686 222.53917336 C277.33512032 227.09104596 277.33963409 231.64290758 277.34190369 236.1947937 C277.34346915 244.06190195 277.33413648 251.92893499 277.31719017 259.79602432 C277.29270541 271.17020197 277.28498525 282.54434361 277.2812262 293.91854475 C277.2746765 312.37686941 277.25475576 330.83515407 277.22631836 349.29345703 C277.19873929 367.21337689 277.17752459 385.13328584 277.16479492 403.05322266 C277.16400675 404.15965599 277.16321858 405.26608932 277.16240653 406.40605094 C277.15849113 411.95725395 277.15470007 417.50845705 277.15097082 423.0596602 C277.1199211 469.039809 277.06464307 515.01988374 277 561 C247.3 561 217.6 561 187 561 C186.9906543 550.40495361 186.98130859 539.80990723 186.97167969 528.89379883 C186.93895593 494.97439538 186.886659 461.0550473 186.82207905 427.13569014 C186.81206187 421.86495582 186.80221769 416.59422118 186.79248047 411.32348633 C186.7905391 410.27419996 186.78859772 409.2249136 186.78659752 408.14383068 C186.75559599 391.16505118 186.73860202 374.18628519 186.72680578 357.20748273 C186.71438465 339.77920022 186.68686152 322.35098848 186.64538693 304.92275065 C186.6202791 294.17291084 186.60688074 283.42318844 186.60857043 272.67331889 C186.60860024 265.29674107 186.59393018 257.92028266 186.56783572 250.5437514 C186.55322162 246.29103163 186.54495939 242.0385567 186.55419731 237.78581619 C186.5625273 233.88487359 186.55221257 229.9844214 186.52766338 226.08355125 C186.52201257 224.67957154 186.52294382 223.27554483 186.53148755 221.87157974 C186.6083075 208.05345652 183.77655271 194.87074103 174.4453125 184.2265625 C167.29518205 177.48696585 157.26904054 173.56668234 147.484375 173.7265625 C134.63042266 175.14130568 123.85240942 184.74192537 114.85546875 193.296875 C112.35213929 195.6666479 109.79712283 197.93675569 107.1875 200.1875 C103.79344884 203.19226931 100.7960909 206.35384287 97.87109375 209.8125 C95.68280212 212.37083677 93.40682971 214.83729489 91.125 217.3125 C86.20386734 222.71464562 81.58410729 228.31163866 77 234 C76.00231195 235.21827563 75.00355089 236.43567307 74.00390625 237.65234375 C66.73114563 246.51961948 59.68729422 255.53718945 52.76269531 264.67822266 C50.88725936 267.14849909 49.00309689 269.61193004 47.1171875 272.07421875 C38.88150759 282.83458909 30.76457218 293.67323632 22.75732422 304.60449219 C20.90639444 307.12759902 19.04969963 309.64637469 17.19140625 312.1640625 C16.56314941 313.01532715 15.93489258 313.8665918 15.28759766 314.74365234 C14.09348485 316.3613301 12.89916407 317.97885436 11.70458984 319.59619141 C11.16141113 320.33272949 10.61823242 321.06926758 10.05859375 321.828125 C9.58736084 322.4665332 9.11612793 323.10494141 8.63061523 323.76269531 C7.82346069 324.87016113 7.82346069 324.87016113 7 326 C6.15455281 327.00525758 5.30910563 328.01051516 4.43803883 329.04623508 C1.33046118 333.43231569 1.29614585 337.25011531 1.36076355 342.49754333 C1.35240787 343.43457425 1.3440522 344.37160516 1.33544332 345.33703095 C1.31355371 348.46652424 1.32710849 351.59483951 1.34057617 354.72436523 C1.33212165 356.97168365 1.32147695 359.21899473 1.30880737 361.46629333 C1.28065149 367.5608279 1.28313451 373.65501061 1.29110122 379.74959064 C1.29422514 386.12112294 1.26919519 392.49254297 1.24714661 398.86402893 C1.21394065 409.55610654 1.19808297 420.24806826 1.19555664 430.94018555 C1.19290738 441.9509699 1.17977479 452.96165982 1.15258789 463.97241211 C1.15091451 464.65160804 1.14924113 465.33080396 1.14751705 466.03058159 C1.13905731 469.43805584 1.13039194 472.84552953 1.12162435 476.253003 C1.04920413 504.50201418 1.0168952 532.75089805 1 561 C-29.03 561 -59.06 561 -90 561 C-90.33 527.01 -90.66 493.02 -91 458 C-93.97 462.62 -96.94 467.24 -100 472 C-121.23314232 500.5830762 -145.49008352 526.69112807 -177 544 C-178.12664062 544.62519531 -179.25328125 545.25039063 -180.4140625 545.89453125 C-189.59173093 550.73654253 -199.0396296 554.1508951 -209 557 C-209.73814941 557.21317871 -210.47629883 557.42635742 -211.23681641 557.64599609 C-241.94074241 566.16098415 -278.3585073 561.66438465 -306.14501953 546.07373047 C-321.52658414 537.1703189 -333.8404599 525.27531941 -343 510 C-343.59675537 509.01580078 -343.59675537 509.01580078 -344.20556641 508.01171875 C-355.27136793 489.39457627 -361.86946904 468.19038519 -366 447 C-366.24459961 445.77482666 -366.24459961 445.77482666 -366.49414062 444.52490234 C-382.79376911 362.06526497 -385.99443 258.75124965 -364 177 C-363.72317383 175.95972656 -363.44634766 174.91945313 -363.16113281 173.84765625 C-354.18769201 140.90300222 -338.97020817 109.78949089 -308.47265625 91.84765625 C-297.14740085 85.82195793 -285.51364607 82.46878344 -273 80 C-271.90816406 79.773125 -270.81632812 79.54625 -269.69140625 79.3125 C-237.01841389 73.55373513 -205.57907553 81.94469339 -178.54003906 100.66430664 C-158.97251545 114.58201472 -139.98198634 131.4382641 -125.08984375 150.3515625 C-122.87930775 153.15295205 -120.57072147 155.85189732 -118.25 158.5625 C-114.10975276 163.52693331 -110.23264081 168.64252456 -106.4375 173.875 C-105.93186523 174.56924072 -105.42623047 175.26348145 -104.90527344 175.97875977 C-101.54700345 180.6597093 -98.39304261 185.45372373 -95.28930664 190.30517578 C-94.87525826 190.95088028 -94.46120987 191.59658478 -94.03461456 192.26185608 C-93.02232161 193.84075373 -92.01105551 195.42030966 -91 197 C-91.01633987 196.1003653 -91.03267975 195.20073059 -91.04951477 194.27383423 C-91.19314113 185.71432348 -91.27225486 177.15701091 -91.28240681 168.59626198 C-91.28980607 164.19671284 -91.32045262 159.80011005 -91.40795898 155.40136719 C-92.08674857 119.69644826 -92.08674857 119.69644826 -80.36157227 107.32373047 C-79.78295441 106.75765076 -79.20433655 106.19157104 -78.60818481 105.6083374 C-76.31917046 103.31910586 -74.4759344 100.75976961 -72.58203125 98.140625 C-71.32740436 96.50896664 -70.07093749 94.87872119 -68.8125 93.25 C-64.04545864 87.03881221 -59.36569333 80.79301406 -54.86645508 74.38574219 C-50.37831967 68.03971018 -45.61111195 61.90600766 -40.8828125 55.73828125 C-36.76900893 50.35928903 -32.75889885 44.9313266 -28.86938477 39.38891602 C-24.37354111 33.02951022 -19.58912622 26.88934858 -14.84545898 20.71411133 C-10.19530976 14.63648479 -5.75386507 8.46831032 -1.50390625 2.10546875 C-0.75947266 1.06326172 -0.75947266 1.06326172 0 0 Z " fill="#FEFEFE" transform="translate(645,362)"/>
<path d="M0 0 C9.38581771 5.46502105 17.25001146 12.47710779 25 20 C26.42505859 21.36511719 26.42505859 21.36511719 27.87890625 22.7578125 C34.08572191 28.81787452 39.6416264 35.18604104 45 42 C45.85981487 43.06970402 46.720526 44.13868813 47.58203125 45.20703125 C58.54018109 58.87453763 68.45268093 73.32076961 78 88 C78.43715332 88.67095703 78.87430664 89.34191406 79.32470703 90.03320312 C88.33579841 103.92811931 96.71917602 118.19410972 104.99511719 132.53466797 C106.27580626 134.75285342 107.56650127 136.96400176 108.86425781 139.17236328 C110.48966778 141.93848395 112.09204176 144.71652933 113.6875 147.5 C114.40111694 148.69967407 114.40111694 148.69967407 115.12915039 149.92358398 C115.54414795 150.66036377 115.95914551 151.39714355 116.38671875 152.15625 C116.74983154 152.78337891 117.11294434 153.41050781 117.48706055 154.05664062 C118.24305511 156.92085609 117.31142699 158.39587 116 161 C115.07355943 162.55593221 114.10196323 164.08560864 113.09375 165.58984375 C112.51995605 166.44940674 111.94616211 167.30896973 111.35498047 168.19458008 C110.74283691 169.09974365 110.13069336 170.00490723 109.5 170.9375 C108.86852051 171.87682373 108.23704102 172.81614746 107.58642578 173.78393555 C102.52302095 181.28772917 97.36261007 188.70726361 92 196 C91.54447754 196.62148926 91.08895508 197.24297852 90.61962891 197.88330078 C83.50289677 207.56561846 76.08172929 216.96224876 68.44287109 226.23681641 C67.18369952 227.77551981 65.94367578 229.32985281 64.70703125 230.88671875 C57.95078477 239.36688553 50.50371731 247.18481531 43 255 C42.48083008 255.54253418 41.96166016 256.08506836 41.42675781 256.64404297 C26.63982291 272.02345102 5.67040988 291.72576682 -16.95678711 292.34277344 C-25.66633193 292.44796695 -32.75722015 292.45001256 -40 287 C-40.83789062 286.37867188 -41.67578125 285.75734375 -42.5390625 285.1171875 C-55.84092464 273.67336324 -58.90102285 252.48230697 -61 236 C-61.09764648 235.26765137 -61.19529297 234.53530273 -61.29589844 233.78076172 C-62.54692147 224.19590344 -63.18262047 214.61448139 -63.54418945 204.95751953 C-63.58679303 203.82580385 -63.62939661 202.69408817 -63.67329121 201.52807808 C-64.09315083 189.57842545 -64.16395839 177.63559686 -64.16796875 165.6796875 C-64.17119841 163.35295595 -64.17456361 161.02622458 -64.17805481 158.69949341 C-64.18397318 153.87110931 -64.18590208 149.04274292 -64.18530273 144.21435547 C-64.1852009 138.09898636 -64.19890823 131.98373278 -64.21607494 125.86839104 C-64.22731062 121.07902527 -64.22921852 116.28968657 -64.22869301 111.50030899 C-64.22985366 109.24819665 -64.23416401 106.99608314 -64.24202538 104.74398422 C-64.29065545 89.3926955 -63.50728235 74.27669349 -62 59 C-61.87216082 57.65996066 -61.74457746 56.31989687 -61.61737061 54.97979736 C-59.89683473 37.30767648 -57.3620759 16.06514088 -44 3 C-29.79086313 -6.91778681 -15.66090006 -7.59047029 0 0 Z " fill="#00A0E2" transform="translate(421,540)"/>
</svg>
