<?xml version="1.0" encoding="UTF-8"?>
<svg version="1.1" xmlns="http://www.w3.org/2000/svg" width="225" height="225">
<path d="M0 0 C74.25 0 148.5 0 225 0 C225 74.25 225 148.5 225 225 C150.75 225 76.5 225 0 225 C0 150.75 0 76.5 0 0 Z " fill="#45A041" transform="translate(0,0)"/>
<path d="M0 0 C1.34888732 0.00015905 2.69778075 0.00584927 4.04663086 0.01586914 C5.10991859 0.01799156 5.10991859 0.01799156 6.19468689 0.02015686 C8.46699173 0.02577096 10.73919936 0.03832576 13.01147461 0.05102539 C14.54858257 0.05603858 16.08569206 0.0606018 17.62280273 0.06469727 C21.39823103 0.07574497 25.17358632 0.09301898 28.94897461 0.11352539 C28.92504639 0.76434082 28.90111816 1.41515625 28.87646484 2.08569336 C28.65273028 12.57894127 31.93172761 20.81187562 39.16772461 28.50805664 C40.83639727 30.01205766 42.46270809 31.15311754 44.38647461 32.30102539 C45.23209961 32.89915039 46.07772461 33.49727539 46.94897461 34.11352539 C47.38647461 36.80102539 47.38647461 36.80102539 46.94897461 39.11352539 C46.61897461 39.44352539 46.28897461 39.77352539 45.94897461 40.11352539 C42.06880945 39.80311218 39.12006787 39.19273523 35.57397461 37.55102539 C31.36488229 35.88190257 27.42178118 35.06353198 22.94897461 36.11352539 C19.92399 38.30439557 19.05487519 39.49681027 18.41772461 43.20727539 C18.42803711 44.33133789 18.43834961 45.45540039 18.44897461 46.61352539 C18.43866211 47.73758789 18.42834961 48.86165039 18.41772461 50.01977539 C19.05162229 53.71129718 20.01444848 54.85946909 22.94897461 57.11352539 C25.98418855 58.12526337 28.1463054 58.27926053 31.32397461 58.30102539 C32.25983398 58.31520508 33.19569336 58.32938477 34.15991211 58.34399414 C37.12548923 58.09893945 39.22050458 57.25224856 41.94897461 56.11352539 C44.28105481 56.03706374 46.61743339 56.0220924 48.94897461 56.11352539 C49.3409029 59.45085417 49.1940595 60.77476361 47.19116211 63.54321289 C46.40999023 64.35016602 45.62881836 65.15711914 44.82397461 65.98852539 C44.0028418 66.85993164 43.18170898 67.73133789 42.33569336 68.62915039 C41.54807617 69.44899414 40.76045898 70.26883789 39.94897461 71.11352539 C33.61279665 77.90524555 28.79799594 84.97788735 28.82397461 94.55102539 C28.82139648 95.49848633 28.81881836 96.44594727 28.81616211 97.42211914 C28.9348757 99.82781506 29.32874724 101.80291666 29.94897461 104.11352539 C25.26758207 104.13817827 20.58622702 104.15636278 15.90478516 104.16845703 C14.31102846 104.17349696 12.71727642 104.18032889 11.12353516 104.18896484 C8.83747208 104.20104538 6.55146994 104.20675694 4.26538086 104.21118164 C3.54870743 104.21634293 2.832034 104.22150421 2.09364319 104.2268219 C0.37833789 104.22701802 -1.33683805 104.17544546 -3.05102539 104.11352539 C-4.05102539 103.11352539 -4.05102539 103.11352539 -4.14868164 99.29711914 C-4.14200628 97.71505857 -4.13004415 96.1330138 -4.11352539 94.55102539 C-4.10901367 93.7447168 -4.10450195 92.9384082 -4.09985352 92.10766602 C-4.08803057 90.10958783 -4.07009453 88.11154756 -4.05102539 86.11352539 C0.56897461 86.11352539 5.18897461 86.11352539 9.94897461 86.11352539 C9.94897461 63.67352539 9.94897461 41.23352539 9.94897461 18.11352539 C5.32897461 18.11352539 0.70897461 18.11352539 -4.05102539 18.11352539 C-4.07786851 15.30096258 -4.09778727 12.48865298 -4.11352539 9.67602539 C-4.1219043 8.87358398 -4.1302832 8.07114258 -4.13891602 7.24438477 C-4.14753969 5.20057318 -4.10330689 3.15668637 -4.05102539 1.11352539 C-3.05102539 0.11352539 -3.05102539 0.11352539 0 0 Z " fill="#FBFDFB" transform="translate(60.051025390625,69.886474609375)"/>
<path d="M0 0 C3.3329312 0.28567982 4.97507008 0.9814475 7.6875 3 C11.79218215 5.80157422 11.79218215 5.80157422 21 6 C21 19.2 21 32.4 21 46 C3.18 46 -14.64 46 -33 46 C-31.68 43.69 -30.36 41.38 -29 39 C-26.59434042 32.16385113 -26.63922343 24.91916884 -26.52148438 17.75390625 C-26.3656156 13.03222293 -26.03466649 9.85140389 -23 6 C-20.43444962 4.11859639 -19.43151585 3.94115693 -16.25 4.375 C-15.5075 4.58125 -14.765 4.7875 -14 5 C-13.97287934 6.43739513 -13.95354933 7.87493863 -13.9375 9.3125 C-13.92589844 10.11300781 -13.91429687 10.91351563 -13.90234375 11.73828125 C-14 14 -14 14 -15 17 C-15.81587483 27.03627892 -15.81587483 27.03627892 -12 36 C-8.99087068 39.26705469 -7.52346842 39.94183684 -3.0625 40.4375 C0.87028314 40.21488963 3.69788066 39.22701072 7 37 C9.83448795 33.69309739 10.65277641 30.54130119 10.48046875 26.16796875 C9.51522112 21.81258311 6.64451004 18.5002616 4 15 C2.83843603 13.42817061 1.69198635 11.84503576 0.5625 10.25 C0.04816406 9.55390625 -0.46617187 8.8578125 -0.99609375 8.140625 C-2.2985775 5.36334447 -1.9054848 3.8779733 -1 1 C-0.67 0.67 -0.34 0.34 0 0 Z " fill="#F6FBF6" transform="translate(144,128)"/>
<path d="M0 0 C3.51520834 2.3707219 5.79390381 5.02530762 7.6875 8.8125 C8.23260836 15.13575698 7.39362028 19.57760511 3.6875 24.8125 C0.17677502 28.1560476 -2.58286909 29.08525047 -7.3125 29.3125 C-12.04213091 29.08525047 -14.80177502 28.1560476 -18.3125 24.8125 C-21.32721418 20.55421622 -23.10638264 16.09921605 -22.8359375 10.8359375 C-21.6381338 6.2056217 -18.41234806 2.12596771 -14.3828125 -0.39453125 C-9.60177586 -2.22575849 -4.73197877 -1.69636975 0 0 Z " fill="#FBFDFB" transform="translate(84.3125,31.1875)"/>
<path d="M0 0 C9.57 0 19.14 0 29 0 C28.67 0.66 28.34 1.32 28 2 C27.34 2 26.68 2 26 2 C25.566875 2.86625 25.566875 2.86625 25.125 3.75 C24.44168486 5.11663029 23.72381773 6.46760206 22.94677734 7.78320312 C21.76609618 10.54766546 21.74444486 12.71644622 21.7265625 15.71875 C21.7059375 16.81574219 21.6853125 17.91273437 21.6640625 19.04296875 C21.63802168 21.34758122 21.61979189 23.6522952 21.609375 25.95703125 C21.58617187 27.05402344 21.56296875 28.15101562 21.5390625 29.28125 C21.52673584 30.78268555 21.52673584 30.78268555 21.51416016 32.31445312 C20.86601832 35.69980935 19.69028059 36.90817842 17 39 C14.5 39.125 14.5 39.125 12 38 C8.38143896 33.5366646 7.54797216 30.50319716 7.5 24.8125 C7.25967751 18.70830876 6.28612116 13.89067968 3.9375 8.26953125 C3.07704034 6.18650183 2.48477088 4.19661807 2 2 C1.34 2 0.68 2 0 2 C0 1.34 0 0.68 0 0 Z " fill="#F5FAF5" transform="translate(111,70)"/>
<path d="M0 0 C3.96 0 7.92 0 12 0 C12 12.87 12 25.74 12 39 C7.545 39.495 7.545 39.495 3 40 C0.63561239 41.0820563 0.63561239 41.0820563 -1.125 42.5625 C-4.98111832 45.2571369 -7.36279002 45.48304271 -12 45 C-12.85546875 42.859375 -12.85546875 42.859375 -13 40 C-11.15604395 37.83916116 -9.42553898 36.10599883 -7.3125 34.25 C-0.31633235 27.64587641 3.08819322 22.62695045 3.4375 12.75 C3.43148644 8.20374582 2.46318437 5.78951441 0 2 C0 1.34 0 0.68 0 0 Z " fill="#F7FBF6" transform="translate(153,70)"/>
</svg>
